<svg width="36" height="37" viewBox="0 0 36 37" fill="none" xmlns="http://www.w3.org/2000/svg">
<g filter="url(#filter0_dd_104_14656)">
<rect x="4" y="4.5" width="28" height="28" rx="14" fill="#B7EB8F"/>
<path d="M18 6.25C11.2352 6.25 5.75 11.7352 5.75 18.5C5.75 25.2648 11.2352 30.75 18 30.75C24.7648 30.75 30.25 25.2648 30.25 18.5C30.25 11.7352 24.7648 6.25 18 6.25ZM23.291 14.4996L17.5324 22.484C17.4519 22.5963 17.3458 22.6879 17.2229 22.751C17.1 22.8141 16.9638 22.8471 16.8256 22.8471C16.6874 22.8471 16.5512 22.8141 16.4283 22.751C16.3053 22.6879 16.1992 22.5963 16.1188 22.484L12.709 17.759C12.6051 17.6141 12.709 17.4117 12.8867 17.4117H14.1691C14.448 17.4117 14.7133 17.5457 14.8773 17.7754L16.8242 20.477L21.1227 14.516C21.2867 14.2891 21.5492 14.1523 21.8309 14.1523H23.1133C23.291 14.1523 23.3949 14.3547 23.291 14.4996Z" fill="#52C41A"/>
</g>
<defs>
<filter id="filter0_dd_104_14656" x="0" y="0.5" width="36" height="36" filterUnits="userSpaceOnUse" color-interpolation-filters="sRGB">
<feFlood flood-opacity="0" result="BackgroundImageFix"/>
<feColorMatrix in="SourceAlpha" type="matrix" values="0 0 0 0 0 0 0 0 0 0 0 0 0 0 0 0 0 0 127 0" result="hardAlpha"/>
<feMorphology radius="4" operator="dilate" in="SourceAlpha" result="effect1_dropShadow_104_14656"/>
<feOffset/>
<feColorMatrix type="matrix" values="0 0 0 0 0.85098 0 0 0 0 0.968627 0 0 0 0 0.745098 0 0 0 1 0"/>
<feBlend mode="normal" in2="BackgroundImageFix" result="effect1_dropShadow_104_14656"/>
<feColorMatrix in="SourceAlpha" type="matrix" values="0 0 0 0 0 0 0 0 0 0 0 0 0 0 0 0 0 0 127 0" result="hardAlpha"/>
<feMorphology radius="1" operator="dilate" in="SourceAlpha" result="effect2_dropShadow_104_14656"/>
<feOffset/>
<feComposite in2="hardAlpha" operator="out"/>
<feColorMatrix type="matrix" values="0 0 0 0 0.717647 0 0 0 0 0.921569 0 0 0 0 0.560784 0 0 0 1 0"/>
<feBlend mode="normal" in2="effect1_dropShadow_104_14656" result="effect2_dropShadow_104_14656"/>
<feBlend mode="normal" in="SourceGraphic" in2="effect2_dropShadow_104_14656" result="shape"/>
</filter>
</defs>
</svg>
