<svg width="36" height="37" viewBox="0 0 36 37" fill="none" xmlns="http://www.w3.org/2000/svg">
<g filter="url(#filter0_dd_91_12008)">
<rect x="4" y="4.5" width="28" height="28" rx="14" fill="#FFE58F"/>
<path d="M18 6.25C11.2352 6.25 5.75 11.7352 5.75 18.5C5.75 25.2648 11.2352 30.75 18 30.75C24.7648 30.75 30.25 25.2648 30.25 18.5C30.25 11.7352 24.7648 6.25 18 6.25ZM17.125 12.5938C17.125 12.4734 17.2234 12.375 17.3438 12.375H18.6562C18.7766 12.375 18.875 12.4734 18.875 12.5938V20.0312C18.875 20.1516 18.7766 20.25 18.6562 20.25H17.3438C17.2234 20.25 17.125 20.1516 17.125 20.0312V12.5938ZM18 24.625C17.6565 24.618 17.3295 24.4766 17.0891 24.2312C16.8487 23.9859 16.714 23.656 16.714 23.3125C16.714 22.969 16.8487 22.6391 17.0891 22.3938C17.3295 22.1484 17.6565 22.007 18 22C18.3435 22.007 18.6705 22.1484 18.9109 22.3938C19.1513 22.6391 19.286 22.969 19.286 23.3125C19.286 23.656 19.1513 23.9859 18.9109 24.2312C18.6705 24.4766 18.3435 24.618 18 24.625Z" fill="#FAAD14"/>
</g>
<defs>
<filter id="filter0_dd_91_12008" x="0" y="0.5" width="36" height="36" filterUnits="userSpaceOnUse" color-interpolation-filters="sRGB">
<feFlood flood-opacity="0" result="BackgroundImageFix"/>
<feColorMatrix in="SourceAlpha" type="matrix" values="0 0 0 0 0 0 0 0 0 0 0 0 0 0 0 0 0 0 127 0" result="hardAlpha"/>
<feMorphology radius="4" operator="dilate" in="SourceAlpha" result="effect1_dropShadow_91_12008"/>
<feOffset/>
<feColorMatrix type="matrix" values="0 0 0 0 1 0 0 0 0 0.945098 0 0 0 0 0.721569 0 0 0 1 0"/>
<feBlend mode="normal" in2="BackgroundImageFix" result="effect1_dropShadow_91_12008"/>
<feColorMatrix in="SourceAlpha" type="matrix" values="0 0 0 0 0 0 0 0 0 0 0 0 0 0 0 0 0 0 127 0" result="hardAlpha"/>
<feMorphology radius="1" operator="dilate" in="SourceAlpha" result="effect2_dropShadow_91_12008"/>
<feOffset/>
<feComposite in2="hardAlpha" operator="out"/>
<feColorMatrix type="matrix" values="0 0 0 0 1 0 0 0 0 0.898039 0 0 0 0 0.560784 0 0 0 1 0"/>
<feBlend mode="normal" in2="effect1_dropShadow_91_12008" result="effect2_dropShadow_91_12008"/>
<feBlend mode="normal" in="SourceGraphic" in2="effect2_dropShadow_91_12008" result="shape"/>
</filter>
</defs>
</svg>
